<?xml version="1.0" encoding="utf-8"?>
<!-- Generator: Adobe Illustrator 19.2.1, SVG Export Plug-In . SVG Version: 6.00 Build 0)  -->
<svg version="1.1" id="Layer_1" xmlns="http://www.w3.org/2000/svg" xmlns:xlink="http://www.w3.org/1999/xlink" x="0px" y="0px"
	 viewBox="0 0 118 132" style="enable-background:new 0 0 118 132;" xml:space="preserve">
<style type="text/css">
	.st0{fill:#FFFFFF;}
	.st1{fill:#FFFFFF;stroke:#FFFFFF;stroke-width:3;}
</style>
<g>
	<path id="path-1" class="st0" d="M55.5,6c1.9-1.1,5-1.1,6.9,0l45,26c1.9,1.1,3.5,3.8,3.5,6v52c0,2.2-1.6,4.9-3.5,6l-45,26
		c-1.9,1.1-5,1.1-6.9,0l-45-26C8.6,94.9,7,92.2,7,90V38c0-2.2,1.6-4.9,3.5-6L55.5,6z"/>
</g>
<title>Mask</title>
<desc>Created with Sketch.</desc>
<g id="Page-1">
	<g id="_x31_0032017" transform="translate(-10.000000, -36.000000)">
		<g id="logo" transform="translate(17.000000, 41.000000)">
			<g id="Mask">
				<g>
					<path id="path-1_3_" d="M48.5,1c1.9-1.1,5-1.1,6.9,0l45,26c1.9,1.1,3.5,3.8,3.5,6v52c0,2.2-1.6,4.9-3.5,6l-45,26
						c-1.9,1.1-5,1.1-6.9,0l-45-26C1.6,89.9,0,87.2,0,85V33c0-2.2,1.6-4.9,3.5-6L48.5,1z"/>
				</g>
				<g>
					<path id="path-1_2_" class="st1" d="M48.5,1c1.9-1.1,5-1.1,6.9,0l45,26c1.9,1.1,3.5,3.8,3.5,6v52c0,2.2-1.6,4.9-3.5,6l-45,26
						c-1.9,1.1-5,1.1-6.9,0l-45-26C1.6,89.9,0,87.2,0,85V33c0-2.2,1.6-4.9,3.5-6L48.5,1z"/>
				</g>
			</g>
		</g>
	</g>
</g>
<image style="overflow:visible;" width="925" height="630" xlink:href="Rane_Group_Logo.jpg"  transform="matrix(0.1123 0 0 0.1016 7 32)">
</image>
</svg>
