<svg id="Layer_1" data-name="Layer 1" xmlns="http://www.w3.org/2000/svg" xmlns:xlink="http://www.w3.org/1999/xlink" viewBox="0 0 106.92 120.65"><defs><style>.cls-1,.cls-3{fill:#fff;}.cls-2{filter:url(#filter-3);}.cls-3{stroke:#fff;stroke-width:3px;}</style><filter id="filter-3" x="-55.54" y="-53.67" width="200" height="200" name="filter-3"><feMorphology result="shadowSpreadOuter1" operator="dilate" radius="1.5" in="SourceAlpha"/><feOffset result="shadowOffsetOuter1" dy="2" in="shadowSpreadOuter1"/><feGaussianBlur result="shadowBlurOuter1" stdDeviation="3" in="shadowOffsetOuter1"/><feComposite result="shadowBlurOuter1" operator="out" in="shadowBlurOuter1" in2="SourceAlpha"/><feColorMatrix values="0 0 0 0 0 0 0 0 0 0 0 0 0 0 0 0 0 0 0.26 0" in="shadowBlurOuter1"/></filter></defs><title>renewmobile</title><g id="mask-2"><path id="path-1" class="cls-1" d="M55.53,6a7.67,7.67,0,0,1,6.94,0l45,26A7.67,7.67,0,0,1,111,38V90a7.67,7.67,0,0,1-3.47,6l-45,26a7.67,7.67,0,0,1-6.94,0l-45-26A7.67,7.67,0,0,1,7,90V38a7.67,7.67,0,0,1,3.47-6Z" transform="translate(-5.54 -3.67)"/></g><g id="Page-1"><g id="_10032017" data-name="10032017"><g id="logo"><g id="Mask"><g class="cls-2"><path id="path-1-2" data-name="path-1" d="M55.53,6a7.67,7.67,0,0,1,6.94,0l45,26A7.67,7.67,0,0,1,111,38V90a7.67,7.67,0,0,1-3.47,6l-45,26a7.67,7.67,0,0,1-6.94,0l-45-26A7.67,7.67,0,0,1,7,90V38a7.67,7.67,0,0,1,3.47-6Z" transform="translate(-5.54 -3.67)"/></g><path id="path-1-3" data-name="path-1" class="cls-3" d="M55.53,6a7.67,7.67,0,0,1,6.94,0l45,26A7.67,7.67,0,0,1,111,38V90a7.67,7.67,0,0,1-3.47,6l-45,26a7.67,7.67,0,0,1-6.94,0l-45-26A7.67,7.67,0,0,1,7,90V38a7.67,7.67,0,0,1,3.47-6Z" transform="translate(-5.54 -3.67)"/></g></g></g></g><image width="340" height="85" transform="translate(0.5 40.33) scale(0.3 0.46)" xlink:href="renew.png"/></svg>